:SAMPLES-PER-SECOND 30
:FULLY-SPECIFIED
:DEGREES
231
root  0.143013 22.0824 1.05417 -27.058 82.4192 -2.22493
RightUpLeg  -57.5276 -6.71734 -3.18108
RightLeg  93.2464 19.6495 -25.1615
RightFoot  -15.7837 0.226497 7.95859
RightToes  5.82077e-011 -3.18055e-015 -2.98177e-016
Spine  23.2589 -2.63905 9.84742
Spine1  13.9032 0.503003 -2.37833
HEad  -15.6602 3.07577 -0.44395
LeftShoulder1  -3.88251e-019 9.70628e-020 -3.87848e-018
LeftArm  -18.7876 52.3922 -69.2093
LeftForeArm  -7.59851 -17.4351 -4.11411
LeftHand  -0.408518 -1.80807 7.13248
RightShoulder  8.22026 10.9918 37.9232
RightArm  7.40428 -36.3173 23.9442
RightForeArm  19.8092 14.0421 -3.05439
RightHand  -1.32843 5.83099 -13.6688
LeftUpLeg  -50.653 -6.99937 14.2207
LeftLeg  105.47 -13.3791 0.114199
LeftFoot  -29.8683 -1.96107 -12.6967
LeftToes  7.79675e-011 9.80247e-012 -3.28897e-011
232
root  0.127164 22.0944 1.06608 -25.5924 82.6092 -1.09128
RightUpLeg  -57.8949 -6.47699 -3.35246
RightLeg  93.1053 19.6637 -25.4932
RightFoot  -15.6535 0.222718 8.23019
RightToes  5.82077e-011 -3.18055e-015 -2.98177e-016
Spine  23.4953 -2.92612 9.04363
Spine1  14.7021 -0.00953024 -2.21728
HEad  -16.4517 2.853 -0.355386
LeftShoulder1  -3.88251e-019 9.70628e-020 -3.87848e-018
LeftArm  -18.2398 52.3233 -69.0615
LeftForeArm  -7.79724 -17.7223 -4.06506
LeftHand  -0.438584 -2.04966 7.39818
RightShoulder  8.17744 10.9756 37.7519
RightArm  10.1402 -36.34 24.6181
RightForeArm  15.9963 15.7339 -3.95871
RightHand  -1.28955 5.67662 -13.4528
LeftUpLeg  -51.0732 -7.11081 13.9893
LeftLeg  105.333 -13.4252 0.262809
LeftFoot  -29.6558 -1.95568 -12.8278
LeftToes  7.79675e-011 9.80247e-012 -3.28897e-011
233
root  0.115065 22.1004 1.08693 -24.9244 82.6869 -0.740156
RightUpLeg  -58.2607 -6.1624 -3.37823
RightLeg  93.027 19.6856 -25.7396
RightFoot  -15.4843 0.215145 8.49255
RightToes  5.82077e-011 -3.18055e-015 -2.98177e-016
Spine  23.9679 -3.04031 8.46897
Spine1  15.5789 -0.283042 -1.98886
HEad  -17.2546 2.1151 -0.0753487
LeftShoulder1  -3.88251e-019 9.70628e-020 -3.87848e-018
LeftArm  -17.5737 51.6807 -68.9052
LeftForeArm  -8.01195 -17.6465 -4.36391
LeftHand  -0.458586 -2.22363 7.55277
RightShoulder  8.13383 10.9631 37.5681
RightArm  15.1401 -36.6253 24.8598
RightForeArm  9.35911 17.9209 -5.93786
RightHand  -1.23201 5.51447 -13.0498
LeftUpLeg  -51.4411 -7.11849 13.988
LeftLeg  105.257 -13.4288 0.273183
LeftFoot  -29.5703 -1.95647 -12.9017
LeftToes  7.79675e-011 9.80247e-012 -3.28897e-011
234
root  0.111859 22.1058 1.10854 -24.9452 82.6662 -1.10157
RightUpLeg  -58.6336 -5.8783 -3.24159
RightLeg  92.9416 19.7001 -25.9689
RightFoot  -15.3397 0.205933 8.60336
RightToes  5.82077e-011 -3.18055e-015 -2.98177e-016
Spine  24.6801 -3.1296 8.24898
Spine1  16.4168 -0.345977 -2.04551
HEad  -17.8111 1.06563 0.605422
LeftShoulder1  -3.88251e-019 9.70628e-020 -3.87848e-018
LeftArm  -16.1898 50.9408 -68.6177
LeftForeArm  -8.35627 -17.9806 -4.51268
LeftHand  -0.447725 -2.29672 7.30766
RightShoulder  8.14727 10.9727 37.612
RightArm  20.7676 -36.7917 24.7447
RightForeArm  2.65667 19.7439 -8.34103
RightHand  -1.25189 5.54595 -13.2166
LeftUpLeg  -51.7859 -7.03649 14.1522
LeftLeg  105.216 -13.4192 0.240501
LeftFoot  -29.5761 -1.96287 -12.9407
LeftToes  7.79675e-011 9.80247e-012 -3.28897e-011
235
root  0.121553 22.121 1.11917 -25.0728 82.6724 -1.6352
RightUpLeg  -59.0108 -5.84109 -3.092
RightLeg  92.8603 19.6906 -26.0883
RightFoot  -15.2918 0.202711 8.63476
RightToes  5.82077e-011 -3.18055e-015 -2.98177e-016
Spine  25.6247 -3.29091 8.21927
Spine1  17.1195 -0.361287 -2.33212
HEad  -18.0788 -0.00783659 1.26741
LeftShoulder1  -3.88251e-019 9.70628e-020 -3.87848e-018
LeftArm  -14.1195 50.4969 -68.4617
LeftForeArm  -10.3567 -19.1576 -4.10508
LeftHand  -0.41371 -2.14551 6.90477
RightShoulder  8.17073 10.986 37.696
RightArm  24.9513 -36.8195 24.6421
RightForeArm  -1.60657 20.98 -10.2053
RightHand  -1.3356 5.88677 -13.6766
LeftUpLeg  -52.1859 -6.98078 14.279
LeftLeg  105.167 -13.4221 0.249001
LeftFoot  -29.553 -1.97575 -13.0474
LeftToes  7.79675e-011 9.80247e-012 -3.28897e-011
236
root  0.14724 22.1476 1.11937 -24.5928 82.7474 -1.73066
RightUpLeg  -59.5283 -6.05158 -3.04916
RightLeg  92.8557 19.6652 -25.9875
RightFoot  -15.3249 0.20684 8.71644
RightToes  5.82077e-011 -3.18055e-015 -2.98177e-016
Spine  26.6579 -3.44118 8.11251
Spine1  17.7749 -0.423906 -2.51808
HEad  -18.3823 -0.916927 1.52749
LeftShoulder1  -3.88251e-019 9.70628e-020 -3.87848e-018
LeftArm  -11.2239 50.3856 -68.531
LeftForeArm  -18.3082 -21.1107 -3.16843
LeftHand  -0.331647 -1.45711 6.10328
RightShoulder  8.11239 10.9753 37.4363
RightArm  27.0249 -37.0258 24.9075
RightForeArm  -3.49706 22.001 -11.4772
RightHand  -1.37316 6.26012 -13.6192
LeftUpLeg  -52.7465 -6.96576 14.2699
LeftLeg  105.108 -13.4302 0.275056
LeftFoot  -29.5068 -1.99763 -13.2347
LeftToes  7.79675e-011 9.80247e-012 -3.28897e-011
237
root  0.19291 22.1824 1.11913 -23.5928 82.7956 -1.60382
RightUpLeg  -60.3374 -6.31807 -2.97886
RightLeg  92.8745 19.6328 -25.8101
RightFoot  -15.4312 0.216605 8.78268
RightToes  5.82077e-011 -3.18055e-015 -2.98177e-016
Spine  27.6209 -3.49717 8.01005
Spine1  18.4378 -0.437909 -2.60656
HEad  -18.8304 -2.01541 1.79673
LeftShoulder1  -3.88251e-019 9.70628e-020 -3.87848e-018
LeftArm  -7.9405 50.4431 -68.6843
LeftForeArm  -33.7751 -23.427 -1.82629
LeftHand  -0.182321 0.0336482 4.23285
RightShoulder  7.99916 10.9489 36.943
RightArm  27.1489 -37.5626 25.1845
RightForeArm  -3.99596 23.347 -12.4587
RightHand  -1.33351 6.3279 -13.1583
LeftUpLeg  -53.5371 -6.85077 14.2682
LeftLeg  105.053 -13.4214 0.244235
LeftFoot  -29.5773 -2.02997 -13.3967
LeftToes  7.79675e-011 9.80247e-012 -3.28897e-011
238
root  0.269017 22.2347 1.11788 -22.865 82.7017 -2.14438
RightUpLeg  -61.4696 -6.55375 -2.64289
RightLeg  92.7806 19.5747 -25.7423
RightFoot  -15.6412 0.231985 8.7123
RightToes  5.82077e-011 -3.18055e-015 -2.98177e-016
Spine  28.4899 -3.54385 8.35978
Spine1  18.7974 -0.226072 -3.06863
HEad  -18.77 -4.199 2.75106
LeftShoulder1  -3.88251e-019 9.70628e-020 -3.87848e-018
LeftArm  -5.86917 50.5252 -68.8148
LeftForeArm  -50.3502 -25.4728 -0.309667
LeftHand  -0.0541356 2.13076 1.92136
RightShoulder  7.95221 10.9402 36.7326
RightArm  26.1934 -38.3813 24.7566
RightForeArm  -4.22762 25.0559 -13.2833
RightHand  -1.30835 6.14218 -13.1162
LeftUpLeg  -54.5694 -6.51832 14.4647
LeftLeg  104.984 -13.3971 0.160268
LeftFoot  -29.8587 -2.07883 -13.4926
LeftToes  7.79675e-011 9.80247e-012 -3.28897e-011
239
root  0.392325 22.3229 1.1048 -22.3342 82.4458 -3.35042
RightUpLeg  -62.9564 -6.85108 -2.07064
RightLeg  92.6436 19.4732 -25.5652
RightFoot  -15.9106 0.250494 8.58289
RightToes  5.82077e-011 -3.18055e-015 -2.98177e-016
Spine  29.222 -3.69566 9.35413
Spine1  18.4584 0.24643 -4.26135
HEad  -17.3945 -8.00542 4.3222
LeftShoulder1  -3.88251e-019 9.70628e-020 -3.87848e-018
LeftArm  -5.34541 50.603 -68.8075
LeftForeArm  -59.0023 -26.8395 1.01315
LeftHand  -0.0240448 3.26443 0.861664
RightShoulder  7.98834 10.9531 36.8808
RightArm  25.1698 -39.563 23.7168
RightForeArm  -5.02079 26.4072 -13.9553
RightHand  -1.3403 5.99208 -13.6005
LeftUpLeg  -55.8516 -6.00866 14.8152
LeftLeg  104.859 -13.3866 0.120776
LeftFoot  -30.3297 -2.15577 -13.6137
LeftToes  7.79675e-011 9.80247e-012 -3.28897e-011
240
root  0.574537 22.4508 1.08451 -21.0064 82.0904 -4.28713
RightUpLeg  -64.9111 -7.27077 -1.47991
RightLeg  92.6834 19.3449 -24.9053
RightFoot  -16.1386 0.265911 8.48341
RightToes  5.82077e-011 -3.18055e-015 -2.98177e-016
Spine  29.6239 -3.88399 10.5157
Spine1  17.4817 0.772054 -5.87795
HEad  -14.9138 -12.7893 5.85842
LeftShoulder1  -3.88251e-019 9.70628e-020 -3.87848e-018
LeftArm  -4.78955 50.8606 -68.4016
LeftForeArm  -59.3838 -27.8428 2.2133
LeftHand  -0.0517995 2.56478 1.89292
RightShoulder  7.97935 10.9506 36.8423
RightArm  24.0895 -41.1697 22.9651
RightForeArm  -5.56792 26.8499 -14.1658
RightHand  -1.34944 5.85977 -13.8464
LeftUpLeg  -57.4411 -5.36497 15.1333
LeftLeg  104.676 -13.4079 0.189163
LeftFoot  -30.9249 -2.25589 -13.7756
LeftToes  7.79675e-011 9.80247e-012 -3.28897e-011
241
root  0.81515 22.6116 1.082 -18.8824 81.6636 -4.97672
RightUpLeg  -67.3491 -7.69857 -0.805862
RightLeg  92.8258 19.1962 -23.936
RightFoot  -16.3239 0.272659 8.20226
RightToes  5.82077e-011 -3.18055e-015 -2.98177e-016
Spine  29.6356 -3.92451 11.1617
Spine1  16.14 1.06722 -7.13633
HEad  -12.6748 -17.1657 7.06088
LeftShoulder1  -3.88251e-019 9.70628e-020 -3.87848e-018
LeftArm  -3.86096 51.6118 -67.4281
LeftForeArm  -58.1968 -28.9038 3.31519
LeftHand  -0.117203 1.75575 4.0834
RightShoulder  7.85691 10.9116 36.3273
RightArm  23.4848 -42.8016 22.8556
RightForeArm  -5.05785 26.4771 -13.9899
RightHand  -1.27497 5.6308 -13.3547
LeftUpLeg  -59.3822 -4.38716 15.4067
LeftLeg  104.439 -13.443 0.306072
LeftFoot  -31.5665 -2.33861 -13.7854
LeftToes  7.79675e-011 9.80247e-012 -3.28897e-011
242
root  1.10963 22.8207 1.11091 -17.0008 81.0974 -6.39358
RightUpLeg  -70.0235 -7.95054 0.273738
RightLeg  92.6524 18.9803 -23.2443
RightFoot  -16.5674 0.269938 7.48662
RightToes  5.82077e-011 -3.18055e-015 -2.98177e-016
Spine  29.5819 -3.73227 11.0991
Spine1  14.2691 1.03211 -7.49731
HEad  -11.9409 -20.2333 8.05268
LeftShoulder1  -3.88251e-019 9.70628e-020 -3.87848e-018
LeftArm  -3.50015 52.8783 -66.2238
LeftForeArm  -59.4196 -29.7218 3.88563
LeftHand  -0.141576 1.89804 5.14434
RightShoulder  7.72302 10.8685 35.7613
RightArm  23.8614 -43.7974 22.6125
RightForeArm  -3.22844 25.7244 -13.6754
RightHand  -1.18829 5.72068 -12.3738
LeftUpLeg  -61.5419 -2.78668 15.7403
LeftLeg  104.07 -13.4641 0.374937
LeftFoot  -32.1749 -2.36363 -13.4793
LeftToes  7.79675e-011 9.80247e-012 -3.28897e-011
243
root  1.45324 23.1173 1.15399 -15.6608 80.3683 -8.51399
RightUpLeg  -72.4072 -8.00374 1.72752
RightLeg  91.9351 18.6382 -22.9609
RightFoot  -16.9284 0.265093 6.56529
RightToes  5.82077e-011 -3.18055e-015 -2.98177e-016
Spine  29.9206 -3.3633 10.6408
Spine1  11.5456 0.814723 -7.04341
HEad  -12.7823 -22.0431 8.76139
LeftShoulder1  -3.88251e-019 9.70628e-020 -3.87848e-018
LeftArm  -4.19333 54.0022 -65.4448
LeftForeArm  -60.5207 -29.1684 3.40064
LeftHand  -0.110428 2.29801 4.46602
RightShoulder  7.67667 10.8649 35.5392
RightArm  24.3955 -43.9954 21.7126
RightForeArm  -0.441814 24.6531 -13.2533
RightHand  -1.18294 6.51133 -11.5277
LeftUpLeg  -63.4638 -0.763305 16.0391
LeftLeg  103.405 -13.4772 0.414318
LeftFoot  -32.7387 -2.35241 -13.0153
LeftToes  7.79675e-011 9.80247e-012 -3.28897e-011
244
root  1.82379 23.5292 1.18351 -14.9845 79.6559 -10.7255
RightUpLeg  -73.6844 -8.1017 3.10813
RightLeg  90.8387 18.1577 -22.675
RightFoot  -17.3954 0.27324 6.00136
RightToes  5.82077e-011 -3.18055e-015 -2.98177e-016
Spine  30.8598 -2.99952 10.2562
Spine1  8.40192 0.623837 -6.22843
HEad  -14.4157 -23.0979 9.0817
LeftShoulder1  -3.88251e-019 9.70628e-020 -3.87848e-018
LeftArm  -7.63919 53.9461 -65.2452
LeftForeArm  -55.8663 -26.2834 0.954955
LeftHand  -0.0824084 2.50454 3.47689
RightShoulder  7.66673 10.8912 35.4324
RightArm  23.3248 -43.7151 20.8952
RightForeArm  2.56333 22.9908 -12.4619
RightHand  -1.23099 7.36138 -11.2123
LeftUpLeg  -64.4269 0.788199 16.1944
LeftLeg  102.314 -13.5265 0.599925
LeftFoot  -33.2881 -2.37051 -12.7483
LeftToes  7.79675e-011 9.80247e-012 -3.28897e-011
245
root  2.18536 24.0571 1.18626 -16.3075 79.1448 -13.6709
RightUpLeg  -73.155 -8.46043 4.23359
RightLeg  89.4683 17.565 -22.2437
RightFoot  -17.9321 0.301689 5.96104
RightToes  5.82077e-011 -3.18055e-015 -2.98177e-016
Spine  32.2171 -2.8803 10.3778
Spine1  5.87521 0.534097 -5.44956
HEad  -16.1642 -23.7176 9.35214
LeftShoulder1  -3.88251e-019 9.70628e-020 -3.87848e-018
LeftArm  -14.9977 52.2402 -65.292
LeftForeArm  -44.2246 -21.076 -2.75762
LeftHand  -0.0673414 2.92885 3.25956
RightShoulder  7.60048 10.9049 35.0733
RightArm  19.3458 -43.0671 21.005
RightForeArm  5.77693 20.9341 -10.9037
RightHand  -1.22381 7.3131 -11.1927
LeftUpLeg  -63.9077 1.10178 16.4447
LeftLeg  100.754 -13.651 1.16573
LeftFoot  -33.7647 -2.44099 -12.8254
LeftToes  7.79675e-011 9.80247e-012 -3.28897e-011
